{
  "accessors": [
    {
      "bufferView": 2,
      "componentType": 5126,
      "count": 65532,
      "max": [
        15.83988094329834,
        2.9306459426879883,
        15.352781295776367
      ],
      "min": [
        -16.398479461669922,
        -4.8179888725280762,
        -11.978774070739746
      ],
      "type": "VEC3"
    },
    {
      "bufferView": 2,
      "byteOffset": 786384,
      "componentType": 5126,
      "count": 65532,
      "max": [
        0.99632197618484497,
        0.91288185119628906,
        0.99998563528060913
      ],
      "min": [
        -0.99974590539932251,
        -0.99999523162841797,
        -0.99993836879730225
      ],
      "type": "VEC3"
    },
    {
      "bufferView": 3,
      "componentType": 5126,
      "count": 65532,
      "max": [
        0.98978030681610107,
        0.99990957975387573,
        0.99998265504837036,
        1
      ],
      "min": [
        -0.99995803833007812,
        -0.99946767091751099,
        -0.99994945526123047,
        -1
      ],
      "type": "VEC4"
    },
    {
      "bufferView": 1,
      "componentType": 5126,
      "count": 65532,
      "max": [
        0.99926799535751343,
        0.99900799989700317
      ],
      "min": [
        0.00073199998587369919,
        0.00074400001903995872
      ],
      "type": "VEC2"
    },
    {
      "bufferView": 0,
      "componentType": 5125,
      "count": 352656,
      "max": [
        65531
      ],
      "min": [
        0
      ],
      "type": "SCALAR"
    },
    {
      "bufferView": 2,
      "byteOffset": 1572768,
      "componentType": 5126,
      "count": 65532,
      "max": [
        7.8219308853149414,
        2.3091270923614502,
        8.2141590118408203
      ],
      "min": [
        -16.788003921508789,
        -4.9098072052001953,
        -6.5488500595092773
      ],
      "type": "VEC3"
    },
    {
      "bufferView": 2,
      "byteOffset": 2359152,
      "componentType": 5126,
      "count": 65532,
      "max": [
        0.99993085861206055,
        0.93021976947784424,
        0.99998509883880615
      ],
      "min": [
        -0.99995362758636475,
        -0.99999797344207764,
        -0.99998933076858521
      ],
      "type": "VEC3"
    },
    {
      "bufferView": 3,
      "byteOffset": 1048512,
      "componentType": 5126,
      "count": 65532,
      "max": [
        0.96808534860610962,
        0.999991774559021,
        0.99979633092880249,
        1
      ],
      "min": [
        -0.99994158744812012,
        -0.99696367979049683,
        -0.99992376565933228,
        -1
      ],
      "type": "VEC4"
    },
    {
      "bufferView": 1,
      "byteOffset": 524256,
      "componentType": 5126,
      "count": 65532,
      "max": [
        0.99926799535751343,
        0.99925601482391357
      ],
      "min": [
        0.00073199998587369919,
        0.00074400001903995872
      ],
      "type": "VEC2"
    },
    {
      "bufferView": 0,
      "byteOffset": 1410624,
      "componentType": 5125,
      "count": 349362,
      "max": [
        65531
      ],
      "min": [
        0
      ],
      "type": "SCALAR"
    },
    {
      "bufferView": 2,
      "byteOffset": 3145536,
      "componentType": 5126,
      "count": 65532,
      "max": [
        7.7653188705444336,
        1.7326970100402832,
        11.848207473754883
      ],
      "min": [
        -8.7956047058105469,
        -4.9207978248596191,
        -3.9215359687805176
      ],
      "type": "VEC3"
    },
    {
      "bufferView": 2,
      "byteOffset": 3931920,
      "componentType": 5126,
      "count": 65532,
      "max": [
        0.9991300106048584,
        0.93522489070892334,
        0.9999922513961792
      ],
      "min": [
        -0.99997925758361816,
        -1,
        -0.99999898672103882
      ],
      "type": "VEC3"
    },
    {
      "bufferView": 3,
      "byteOffset": 2097024,
      "componentType": 5126,
      "count": 65532,
      "max": [
        0.99972766637802124,
        0.99908721446990967,
        0.99989908933639526,
        1
      ],
      "min": [
        -0.99999570846557617,
        -0.99087339639663696,
        -0.99978756904602051,
        -1
      ],
      "type": "VEC4"
    },
    {
      "bufferView": 1,
      "byteOffset": 1048512,
      "componentType": 5126,
      "count": 65532,
      "max": [
        0.99926799535751343,
        0.99813902378082275
      ],
      "min": [
        0.00073199998587369919,
        0.00074400001903995872
      ],
      "type": "VEC2"
    },
    {
      "bufferView": 0,
      "byteOffset": 2808072,
      "componentType": 5125,
      "count": 352863,
      "max": [
        65531
      ],
      "min": [
        0
      ],
      "type": "SCALAR"
    },
    {
      "bufferView": 2,
      "byteOffset": 4718304,
      "componentType": 5126,
      "count": 65532,
      "max": [
        6.8619580268859863,
        2.8235030174255371,
        4.4288997650146484
      ],
      "min": [
        -8.77911376953125,
        -4.9277138710021973,
        -9.3400583267211914
      ],
      "type": "VEC3"
    },
    {
      "bufferView": 2,
      "byteOffset": 5504688,
      "componentType": 5126,
      "count": 65532,
      "max": [
        0.99984747171401978,
        0.9918677806854248,
        0.99994909763336182
      ],
      "min": [
        -0.99996662139892578,
        -0.99999725818634033,
        -0.99998390674591064
      ],
      "type": "VEC3"
    },
    {
      "bufferView": 3,
      "byteOffset": 3145536,
      "componentType": 5126,
      "count": 65532,
      "max": [
        0.99996191263198853,
        0.99861729145050049,
        0.99958747625350952,
        1
      ],
      "min": [
        -0.99990212917327881,
        -0.99816054105758667,
        -0.99982565641403198,
        -1
      ],
      "type": "VEC4"
    },
    {
      "bufferView": 1,
      "byteOffset": 1572768,
      "componentType": 5126,
      "count": 65532,
      "max": [
        0.9978029727935791,
        0.99925601482391357
      ],
      "min": [
        0.00073199998587369919,
        0.096514001488685608
      ],
      "type": "VEC2"
    },
    {
      "bufferView": 0,
      "byteOffset": 4219524,
      "componentType": 5125,
      "count": 347205,
      "max": [
        65531
      ],
      "min": [
        0
      ],
      "type": "SCALAR"
    },
    {
      "bufferView": 2,
      "byteOffset": 6291072,
      "componentType": 5126,
      "count": 51613,
      "max": [
        15.283246994018555,
        3.0281209945678711,
        7.1547751426696777
      ],
      "min": [
        -0.63351202011108398,
        -4.3203310966491699,
        -11.919775009155273
      ],
      "type": "VEC3"
    },
    {
      "bufferView": 2,
      "byteOffset": 6910428,
      "componentType": 5126,
      "count": 51613,
      "max": [
        0.99957954883575439,
        0.97514146566390991,
        0.99999433755874634
      ],
      "min": [
        -0.9999879002571106,
        -0.9999997615814209,
        -0.9999687671661377
      ],
      "type": "VEC3"
    },
    {
      "bufferView": 3,
      "byteOffset": 4194048,
      "componentType": 5126,
      "count": 51613,
      "max": [
        0.93707436323165894,
        0.99999904632568359,
        0.99933260679244995,
        1
      ],
      "min": [
        -0.99949485063552856,
        -0.9997904896736145,
        -0.99997407197952271,
        -1
      ],
      "type": "VEC4"
    },
    {
      "bufferView": 1,
      "byteOffset": 2097024,
      "componentType": 5126,
      "count": 51613,
      "max": [
        0.99926799535751343,
        0.99627798795700073
      ],
      "min": [
        0.00073199998587369919,
        0.00074400001903995872
      ],
      "type": "VEC2"
    },
    {
      "bufferView": 0,
      "byteOffset": 5608344,
      "componentType": 5125,
      "count": 283449,
      "max": [
        51612
      ],
      "min": [
        0
      ],
      "type": "SCALAR"
    }
  ],
  "asset": {
    "extras": {
      "author": "Geoffrey Marchal (https://sketchfab.com/geoffreymarchal)",
      "license": "CC-BY-NC-4.0 (http://creativecommons.org/licenses/by-nc/4.0/)",
      "source": "https://sketchfab.com/models/f71c3d4730304a6d96e5e2ec85cc1405",
      "title": "Uma-Mahesvara"
    },
    "generator": "Sketchfab-3.18.7",
    "version": "2.0"
  },
  "bufferViews": [
    {
      "buffer": 0,
      "byteLength": 6742140,
      "byteOffset": 0,
      "name": "floatBufferViews",
      "target": 34963
    },
    {
      "buffer": 0,
      "byteLength": 2509928,
      "byteOffset": 6742140,
      "byteStride": 8,
      "name": "floatBufferViews",
      "target": 34962
    },
    {
      "buffer": 0,
      "byteLength": 7529784,
      "byteOffset": 9252068,
      "byteStride": 12,
      "name": "floatBufferViews",
      "target": 34962
    },
    {
      "buffer": 0,
      "byteLength": 5019856,
      "byteOffset": 16781852,
      "byteStride": 16,
      "name": "floatBufferViews",
      "target": 34962
    }
  ],
  "buffers": [
    {
      "byteLength": 21801708,
      "uri": "scene.bin"
    }
  ],
  "images": [
    {
      "uri": "textures/Material_0_baseColor.jpeg"
    }
  ],
  "materials": [
    {
      "doubleSided": true,
      "name": "Material_0",
      "pbrMetallicRoughness": {
        "baseColorFactor": [
          1,
          1,
          1,
          1
        ],
        "baseColorTexture": {
          "index": 0,
          "texCoord": 0
        },
        "metallicFactor": 0,
        "roughnessFactor": 1
      }
    }
  ],
  "meshes": [
    {
      "primitives": [
        {
          "attributes": {
            "NORMAL": 1,
            "POSITION": 0,
            "TANGENT": 2,
            "TEXCOORD_0": 3
          },
          "indices": 4,
          "material": 0,
          "mode": 4
        }
      ]
    },
    {
      "primitives": [
        {
          "attributes": {
            "NORMAL": 6,
            "POSITION": 5,
            "TANGENT": 7,
            "TEXCOORD_0": 8
          },
          "indices": 9,
          "material": 0,
          "mode": 4
        }
      ]
    },
    {
      "primitives": [
        {
          "attributes": {
            "NORMAL": 11,
            "POSITION": 10,
            "TANGENT": 12,
            "TEXCOORD_0": 13
          },
          "indices": 14,
          "material": 0,
          "mode": 4
        }
      ]
    },
    {
      "primitives": [
        {
          "attributes": {
            "NORMAL": 16,
            "POSITION": 15,
            "TANGENT": 17,
            "TEXCOORD_0": 18
          },
          "indices": 19,
          "material": 0,
          "mode": 4
        }
      ]
    },
    {
      "primitives": [
        {
          "attributes": {
            "NORMAL": 21,
            "POSITION": 20,
            "TANGENT": 22,
            "TEXCOORD_0": 23
          },
          "indices": 24,
          "material": 0,
          "mode": 4
        }
      ]
    }
  ],
  "nodes": [
    {
      "children": [
        1
      ],
      "name": "RootNode (gltf orientation matrix)",
      "rotation": [
        -0.70710678118654746,
        -0,
        -0,
        0.70710678118654757
      ]
    },
    {
      "children": [
        2
      ],
      "matrix": [
        0.3145006000995636,
        0.017942165955901146,
        -0.94908767938613892,
        0,
        -0.056957092136144638,
        0.99837660789489746,
        0,
        0,
        0.94754695892333984,
        0.054057274013757706,
        0.31501197814941406,
        0,
        -1.9775544404983521,
        -0.084229268133640289,
        0.70562708377838135,
        1
      ],
      "name": "RootNode (model correction matrix)"
    },
    {
      "children": [
        3,
        4,
        5,
        6,
        7
      ],
      "name": "Uma.obj.cleaner.materialmerger.gles"
    },
    {
      "mesh": 0,
      "name": ""
    },
    {
      "mesh": 1,
      "name": ""
    },
    {
      "mesh": 2,
      "name": ""
    },
    {
      "mesh": 3,
      "name": ""
    },
    {
      "mesh": 4,
      "name": ""
    }
  ],
  "samplers": [
    {
      "magFilter": 9729,
      "minFilter": 9987,
      "wrapS": 10497,
      "wrapT": 10497
    }
  ],
  "scene": 0,
  "scenes": [
    {
      "name": "OSG_Scene",
      "nodes": [
        0
      ]
    }
  ],
  "textures": [
    {
      "sampler": 0,
      "source": 0
    }
  ]
}

