{
  "accessors": [
    {
      "bufferView": 2,
      "componentType": 5126,
      "count": 65532,
      "max": [
        3.2916526794433594,
        -34.894367218017578,
        12.416668891906738
      ],
      "min": [
        -4.3888378143310547,
        -60.757545471191406,
        -7.976201057434082
      ],
      "type": "VEC3"
    },
    {
      "bufferView": 2,
      "byteOffset": 786384,
      "componentType": 5126,
      "count": 65532,
      "max": [
        0.99999076128005981,
        0.99993979930877686,
        0.99998503923416138
      ],
      "min": [
        -0.9999653697013855,
        -0.99965864419937134,
        -0.99996167421340942
      ],
      "type": "VEC3"
    },
    {
      "bufferView": 3,
      "componentType": 5126,
      "count": 65532,
      "max": [
        1,
        0.99999988079071045,
        0.99955928325653076,
        -1
      ],
      "min": [
        -1,
        -1,
        -0.99079269170761108,
        -1
      ],
      "type": "VEC4"
    },
    {
      "bufferView": 3,
      "byteOffset": 1048512,
      "componentType": 5126,
      "count": 65532,
      "max": [
        0.97254902124404907,
        0.96078431606292725,
        0.99607843160629272,
        1
      ],
      "min": [
        0.035294119268655777,
        0.0039215688593685627,
        0.015686275437474251,
        1
      ],
      "type": "VEC4"
    },
    {
      "bufferView": 1,
      "componentType": 5126,
      "count": 65532,
      "max": [
        0.99975597858428955,
        0.48901399970054626
      ],
      "min": [
        0.00024399999529123306,
        0.00024399999529123306
      ],
      "type": "VEC2"
    },
    {
      "bufferView": 0,
      "componentType": 5125,
      "count": 283803,
      "max": [
        65531
      ],
      "min": [
        0
      ],
      "type": "SCALAR"
    },
    {
      "bufferView": 2,
      "byteOffset": 1572768,
      "componentType": 5126,
      "count": 65532,
      "max": [
        3.7608890533447266,
        -36.399467468261719,
        12.412358283996582
      ],
      "min": [
        -4.4598808288574219,
        -57.550640106201172,
        -6.9383859634399414
      ],
      "type": "VEC3"
    },
    {
      "bufferView": 2,
      "byteOffset": 2359152,
      "componentType": 5126,
      "count": 65532,
      "max": [
        0.9999958872795105,
        0.9999319314956665,
        0.99996811151504517
      ],
      "min": [
        -0.99999457597732544,
        -0.99979591369628906,
        -0.99993038177490234
      ],
      "type": "VEC3"
    },
    {
      "bufferView": 3,
      "byteOffset": 2097024,
      "componentType": 5126,
      "count": 65532,
      "max": [
        0.99999982118606567,
        0.99999964237213135,
        0.99992769956588745,
        -1
      ],
      "min": [
        -0.99999964237213135,
        -0.99999994039535522,
        -0.99744951725006104,
        -1
      ],
      "type": "VEC4"
    },
    {
      "bufferView": 3,
      "byteOffset": 3145536,
      "componentType": 5126,
      "count": 65532,
      "max": [
        0.97254902124404907,
        0.97254902124404907,
        0.96470588445663452,
        1
      ],
      "min": [
        0,
        0,
        0,
        1
      ],
      "type": "VEC4"
    },
    {
      "bufferView": 1,
      "byteOffset": 524256,
      "componentType": 5126,
      "count": 65532,
      "max": [
        0.99975597858428955,
        0.48545500636100769
      ],
      "min": [
        0.00024399999529123306,
        0.00024399999529123306
      ],
      "type": "VEC2"
    },
    {
      "bufferView": 0,
      "byteOffset": 1135212,
      "componentType": 5125,
      "count": 257610,
      "max": [
        65531
      ],
      "min": [
        0
      ],
      "type": "SCALAR"
    },
    {
      "bufferView": 2,
      "byteOffset": 3145536,
      "componentType": 5126,
      "count": 65532,
      "max": [
        3.7608890533447266,
        -27.529205322265625,
        11.669631004333496
      ],
      "min": [
        -3.9435567855834961,
        -57.007255554199219,
        -6.9416460990905762
      ],
      "type": "VEC3"
    },
    {
      "bufferView": 2,
      "byteOffset": 3931920,
      "componentType": 5126,
      "count": 65532,
      "max": [
        0.99998807907104492,
        0.99988114833831787,
        0.99998950958251953
      ],
      "min": [
        -0.99988013505935669,
        -0.99996376037597656,
        -0.99998688697814941
      ],
      "type": "VEC3"
    },
    {
      "bufferView": 3,
      "byteOffset": 4194048,
      "componentType": 5126,
      "count": 65532,
      "max": [
        0.99999988079071045,
        0.99999994039535522,
        0.9999883770942688,
        -1
      ],
      "min": [
        -1,
        -1,
        -0.99992674589157104,
        -1
      ],
      "type": "VEC4"
    },
    {
      "bufferView": 3,
      "byteOffset": 5242560,
      "componentType": 5126,
      "count": 65532,
      "max": [
        0.97254902124404907,
        0.97254902124404907,
        0.96470588445663452,
        1
      ],
      "min": [
        0,
        0,
        0,
        1
      ],
      "type": "VEC4"
    },
    {
      "bufferView": 1,
      "byteOffset": 1048512,
      "componentType": 5126,
      "count": 65532,
      "max": [
        0.99975597858428955,
        0.47631800174713135
      ],
      "min": [
        0.00024399999529123306,
        0.00024399999529123306
      ],
      "type": "VEC2"
    },
    {
      "bufferView": 0,
      "byteOffset": 2165652,
      "componentType": 5125,
      "count": 202767,
      "max": [
        65531
      ],
      "min": [
        0
      ],
      "type": "SCALAR"
    },
    {
      "bufferView": 2,
      "byteOffset": 4718304,
      "componentType": 5126,
      "count": 65533,
      "max": [
        5.9503483772277832,
        -27.344257354736328,
        10.174789428710938
      ],
      "min": [
        -4.6112785339355469,
        -39.23724365234375,
        -8.0004758834838867
      ],
      "type": "VEC3"
    },
    {
      "bufferView": 2,
      "byteOffset": 5504700,
      "componentType": 5126,
      "count": 65533,
      "max": [
        0.99999439716339111,
        0.99999779462814331,
        0.99999934434890747
      ],
      "min": [
        -0.99997210502624512,
        -0.99999934434890747,
        -0.99999856948852539
      ],
      "type": "VEC3"
    },
    {
      "bufferView": 3,
      "byteOffset": 6291072,
      "componentType": 5126,
      "count": 65533,
      "max": [
        1,
        0.99999994039535522,
        0.99902164936065674,
        1
      ],
      "min": [
        -1,
        -0.99999988079071045,
        -0.99796688556671143,
        -1
      ],
      "type": "VEC4"
    },
    {
      "bufferView": 3,
      "byteOffset": 7339600,
      "componentType": 5126,
      "count": 65533,
      "max": [
        0.97647058963775635,
        0.99607843160629272,
        0.99607843160629272,
        1
      ],
      "min": [
        0,
        0,
        0,
        1
      ],
      "type": "VEC4"
    },
    {
      "bufferView": 1,
      "byteOffset": 1572768,
      "componentType": 5126,
      "count": 65533,
      "max": [
        0.99975597858428955,
        0.55305701494216919
      ],
      "min": [
        0.00024399999529123306,
        0.00024399999529123306
      ],
      "type": "VEC2"
    },
    {
      "bufferView": 0,
      "byteOffset": 2976720,
      "componentType": 5125,
      "count": 270651,
      "max": [
        65532
      ],
      "min": [
        0
      ],
      "type": "SCALAR"
    },
    {
      "bufferView": 2,
      "byteOffset": 6291096,
      "componentType": 5126,
      "count": 65532,
      "max": [
        5.9503483772277832,
        -27.40538215637207,
        12.190056800842285
      ],
      "min": [
        -1.4882707595825195,
        -56.909805297851562,
        -7.0238065719604492
      ],
      "type": "VEC3"
    },
    {
      "bufferView": 2,
      "byteOffset": 7077480,
      "componentType": 5126,
      "count": 65532,
      "max": [
        0.9999956488609314,
        0.99973970651626587,
        0.99997889995574951
      ],
      "min": [
        -0.99986326694488525,
        -0.99999898672103882,
        -0.9999854564666748
      ],
      "type": "VEC3"
    },
    {
      "bufferView": 3,
      "byteOffset": 8388128,
      "componentType": 5126,
      "count": 65532,
      "max": [
        1,
        1,
        0.99992585182189941,
        1
      ],
      "min": [
        -0.99999994039535522,
        -0.99999874830245972,
        -0.99775069952011108,
        -1
      ],
      "type": "VEC4"
    },
    {
      "bufferView": 3,
      "byteOffset": 9436640,
      "componentType": 5126,
      "count": 65532,
      "max": [
        0.99607843160629272,
        0.98039215803146362,
        0.98039215803146362,
        1
      ],
      "min": [
        0.019607843831181526,
        0,
        0,
        1
      ],
      "type": "VEC4"
    },
    {
      "bufferView": 1,
      "byteOffset": 2097032,
      "componentType": 5126,
      "count": 65532,
      "max": [
        0.99975597858428955,
        0.5563960075378418
      ],
      "min": [
        0.00024399999529123306,
        0.00024399999529123306
      ],
      "type": "VEC2"
    },
    {
      "bufferView": 0,
      "byteOffset": 4059324,
      "componentType": 5125,
      "count": 250704,
      "max": [
        65531
      ],
      "min": [
        0
      ],
      "type": "SCALAR"
    },
    {
      "bufferView": 2,
      "byteOffset": 7863864,
      "componentType": 5126,
      "count": 60105,
      "max": [
        3.0808382034301758,
        -38.191230773925781,
        14.293817520141602
      ],
      "min": [
        -4.711578369140625,
        -58.403053283691406,
        -11.211891174316406
      ],
      "type": "VEC3"
    },
    {
      "bufferView": 2,
      "byteOffset": 8585124,
      "componentType": 5126,
      "count": 60105,
      "max": [
        0.99999982118606567,
        0.99996429681777954,
        0.99964702129364014
      ],
      "min": [
        -0.99999183416366577,
        -0.99974894523620605,
        -0.99996852874755859
      ],
      "type": "VEC3"
    },
    {
      "bufferView": 3,
      "byteOffset": 10485152,
      "componentType": 5126,
      "count": 60105,
      "max": [
        0.99999934434890747,
        0.99999994039535522,
        0.99997240304946899,
        -1
      ],
      "min": [
        -0.99999946355819702,
        -1,
        -0.99622815847396851,
        -1
      ],
      "type": "VEC4"
    },
    {
      "bufferView": 3,
      "byteOffset": 11446832,
      "componentType": 5126,
      "count": 60105,
      "max": [
        0.92549020051956177,
        0.90980392694473267,
        0.87450981140136719,
        1
      ],
      "min": [
        0.043137256056070328,
        0.039215687662363052,
        0.031372550874948502,
        1
      ],
      "type": "VEC4"
    },
    {
      "bufferView": 1,
      "byteOffset": 2621288,
      "componentType": 5126,
      "count": 60105,
      "max": [
        0.99975597858428955,
        0.48217800259590149
      ],
      "min": [
        0.00024399999529123306,
        0.00027399999089539051
      ],
      "type": "VEC2"
    },
    {
      "bufferView": 0,
      "byteOffset": 5062140,
      "componentType": 5125,
      "count": 234465,
      "max": [
        60104
      ],
      "min": [
        0
      ],
      "type": "SCALAR"
    }
  ],
  "asset": {
    "extras": {
      "author": "Geoffrey Marchal (https://sketchfab.com/geoffreymarchal)",
      "license": "CC-BY-NC-4.0 (http://creativecommons.org/licenses/by-nc/4.0/)",
      "source": "https://sketchfab.com/models/77bb4116fc134fbf96e0f52403bff7d5",
      "title": "Shiva Nataraja"
    },
    "generator": "Sketchfab-3.23.3",
    "version": "2.0"
  },
  "bufferViews": [
    {
      "buffer": 0,
      "byteLength": 6000000,
      "byteOffset": 0,
      "name": "floatBufferViews",
      "target": 34963
    },
    {
      "buffer": 0,
      "byteLength": 3102128,
      "byteOffset": 6000000,
      "byteStride": 8,
      "name": "floatBufferViews",
      "target": 34962
    },
    {
      "buffer": 0,
      "byteLength": 9306384,
      "byteOffset": 9102128,
      "byteStride": 12,
      "name": "floatBufferViews",
      "target": 34962
    },
    {
      "buffer": 0,
      "byteLength": 12408512,
      "byteOffset": 18408512,
      "byteStride": 16,
      "name": "floatBufferViews",
      "target": 34962
    }
  ],
  "buffers": [
    {
      "byteLength": 30817024,
      "uri": "scene.bin"
    }
  ],
  "images": [
    {
      "uri": "textures/shiva_nataraja_-_500px_-_CleanUp_-_LowPoly_Material_u1_v1_baseColor.jpeg"
    }
  ],
  "materials": [
    {
      "doubleSided": true,
      "name": "shiva_nataraja_-_500px_-_CleanUp_-_LowPoly_Material_u1_v1",
      "pbrMetallicRoughness": {
        "baseColorFactor": [
          1,
          1,
          1,
          1
        ],
        "baseColorTexture": {
          "index": 0,
          "texCoord": 0
        },
        "metallicFactor": 0,
        "roughnessFactor": 1
      }
    }
  ],
  "meshes": [
    {
      "primitives": [
        {
          "attributes": {
            "COLOR_0": 3,
            "NORMAL": 1,
            "POSITION": 0,
            "TANGENT": 2,
            "TEXCOORD_0": 4
          },
          "indices": 5,
          "material": 0,
          "mode": 4
        }
      ]
    },
    {
      "primitives": [
        {
          "attributes": {
            "COLOR_0": 9,
            "NORMAL": 7,
            "POSITION": 6,
            "TANGENT": 8,
            "TEXCOORD_0": 10
          },
          "indices": 11,
          "material": 0,
          "mode": 4
        }
      ]
    },
    {
      "primitives": [
        {
          "attributes": {
            "COLOR_0": 15,
            "NORMAL": 13,
            "POSITION": 12,
            "TANGENT": 14,
            "TEXCOORD_0": 16
          },
          "indices": 17,
          "material": 0,
          "mode": 4
        }
      ]
    },
    {
      "primitives": [
        {
          "attributes": {
            "COLOR_0": 21,
            "NORMAL": 19,
            "POSITION": 18,
            "TANGENT": 20,
            "TEXCOORD_0": 22
          },
          "indices": 23,
          "material": 0,
          "mode": 4
        }
      ]
    },
    {
      "primitives": [
        {
          "attributes": {
            "COLOR_0": 27,
            "NORMAL": 25,
            "POSITION": 24,
            "TANGENT": 26,
            "TEXCOORD_0": 28
          },
          "indices": 29,
          "material": 0,
          "mode": 4
        }
      ]
    },
    {
      "primitives": [
        {
          "attributes": {
            "COLOR_0": 33,
            "NORMAL": 31,
            "POSITION": 30,
            "TANGENT": 32,
            "TEXCOORD_0": 34
          },
          "indices": 35,
          "material": 0,
          "mode": 4
        }
      ]
    }
  ],
  "nodes": [
    {
      "children": [
        1
      ],
      "name": "RootNode (gltf orientation matrix)",
      "rotation": [
        -0.70710678118654746,
        -0,
        -0,
        0.70710678118654757
      ]
    },
    {
      "children": [
        2
      ],
      "matrix": [
        0.1158905029296875,
        -0.99326115846633911,
        0.0012684809044003487,
        0,
        0.010944856330752373,
        0,
        -0.99994009733200073,
        0,
        0.99320167303085327,
        0.11589744687080383,
        0.010871101170778275,
        0,
        -0.50074166059494019,
        -43.614402770996094,
        -42.52496337890625,
        1
      ],
      "name": "RootNode (model correction matrix)"
    },
    {
      "children": [
        3,
        4,
        5,
        6,
        7,
        8
      ],
      "name": "shiva_nataraja_-_500px_-_CleanUp_-_LowPoly.obj.cleaner.materialmerger.gles"
    },
    {
      "mesh": 0,
      "name": ""
    },
    {
      "mesh": 1,
      "name": ""
    },
    {
      "mesh": 2,
      "name": ""
    },
    {
      "mesh": 3,
      "name": ""
    },
    {
      "mesh": 4,
      "name": ""
    },
    {
      "mesh": 5,
      "name": ""
    }
  ],
  "samplers": [
    {
      "magFilter": 9729,
      "minFilter": 9987,
      "wrapS": 10497,
      "wrapT": 10497
    }
  ],
  "scene": 0,
  "scenes": [
    {
      "name": "OSG_Scene",
      "nodes": [
        0
      ]
    }
  ],
  "textures": [
    {
      "sampler": 0,
      "source": 0
    }
  ]
}

