{
  "accessors": [
    {
      "bufferView": 2,
      "componentType": 5126,
      "count": 12690,
      "max": [
        21.040891647338867,
        8.849151611328125,
        -3.4644191265106201
      ],
      "min": [
        -21.040973663330078,
        -8.5960369110107422,
        -55.267185211181641
      ],
      "type": "VEC3"
    },
    {
      "bufferView": 2,
      "byteOffset": 152280,
      "componentType": 5126,
      "count": 12690,
      "max": [
        0.9999421238899231,
        0.99975252151489258,
        0.99934893846511841
      ],
      "min": [
        -0.99994224309921265,
        -0.99999910593032837,
        -0.99994593858718872
      ],
      "type": "VEC3"
    },
    {
      "bufferView": 3,
      "componentType": 5126,
      "count": 12690,
      "max": [
        0.99490022659301758,
        0.9993787407875061,
        0.99993795156478882,
        1
      ],
      "min": [
        -0.99965721368789673,
        -0.99936574697494507,
        -0.99991852045059204,
        -1
      ],
      "type": "VEC4"
    },
    {
      "bufferView": 1,
      "componentType": 5126,
      "count": 12690,
      "max": [
        0.99742698669433594,
        0.99677002429962158
      ],
      "min": [
        0.0012187500251457095,
        0.0020000000949949026
      ],
      "type": "VEC2"
    },
    {
      "bufferView": 0,
      "componentType": 5125,
      "count": 71064,
      "max": [
        12689
      ],
      "min": [
        0
      ],
      "type": "SCALAR"
    },
    {
      "bufferView": 2,
      "byteOffset": 304560,
      "componentType": 5126,
      "count": 4111,
      "max": [
        12.716612815856934,
        6.7343969345092773,
        12.902565956115723
      ],
      "min": [
        -12.661391258239746,
        -8.635890007019043,
        -13.899624824523926
      ],
      "type": "VEC3"
    },
    {
      "bufferView": 2,
      "byteOffset": 353892,
      "componentType": 5126,
      "count": 4111,
      "max": [
        0.99934422969818115,
        0.99987173080444336,
        0.97867846488952637
      ],
      "min": [
        -0.99958246946334839,
        -0.9987567663192749,
        -0.98340988159179688
      ],
      "type": "VEC3"
    },
    {
      "bufferView": 3,
      "byteOffset": 203040,
      "componentType": 5126,
      "count": 4111,
      "max": [
        0.99947971105575562,
        0.99935644865036011,
        0.97405105829238892,
        1
      ],
      "min": [
        -0.99836242198944092,
        -0.99844110012054443,
        -0.97598570585250854,
        -1
      ],
      "type": "VEC4"
    },
    {
      "bufferView": 1,
      "byteOffset": 101520,
      "componentType": 5126,
      "count": 4111,
      "max": [
        0.98927700519561768,
        0.98322898149490356
      ],
      "min": [
        0.011110000312328339,
        0.011730999685823917
      ],
      "type": "VEC2"
    },
    {
      "bufferView": 0,
      "byteOffset": 284256,
      "componentType": 5125,
      "count": 23946,
      "max": [
        4110
      ],
      "min": [
        0
      ],
      "type": "SCALAR"
    },
    {
      "bufferView": 2,
      "byteOffset": 403224,
      "componentType": 5126,
      "count": 11007,
      "max": [
        27.866479873657227,
        3.557765007019043,
        27.886941909790039
      ],
      "min": [
        -27.866479873657227,
        -3.5577630996704102,
        -27.886941909790039
      ],
      "type": "VEC3"
    },
    {
      "bufferView": 2,
      "byteOffset": 535308,
      "componentType": 5126,
      "count": 11007,
      "max": [
        0.99934148788452148,
        0.9999886155128479,
        0.99966126680374146
      ],
      "min": [
        -0.99977588653564453,
        -1,
        -0.99965429306030273
      ],
      "type": "VEC3"
    },
    {
      "bufferView": 3,
      "byteOffset": 268816,
      "componentType": 5126,
      "count": 11007,
      "max": [
        0.94421583414077759,
        0.99998390674591064,
        0.80911827087402344,
        1
      ],
      "min": [
        -0.92156696319580078,
        -0.99998849630355835,
        -1,
        -1
      ],
      "type": "VEC4"
    },
    {
      "bufferView": 1,
      "byteOffset": 134408,
      "componentType": 5126,
      "count": 11007,
      "max": [
        0.98771202564239502,
        0.97568398714065552
      ],
      "min": [
        0.0093740001320838928,
        0.026897000148892403
      ],
      "type": "VEC2"
    },
    {
      "bufferView": 0,
      "byteOffset": 380040,
      "componentType": 5125,
      "count": 61494,
      "max": [
        11006
      ],
      "min": [
        0
      ],
      "type": "SCALAR"
    }
  ],
  "asset": {
    "extras": {
      "author": "Francesco Coldesina (https://sketchfab.com/topfrank2013)",
      "license": "CC-BY-4.0 (http://creativecommons.org/licenses/by/4.0/)",
      "source": "https://sketchfab.com/models/aecdae3d17e74256a3536510d58b30d2",
      "title": "Tiger Mandir"
    },
    "generator": "Sketchfab-3.19.1",
    "version": "2.0"
  },
  "bufferViews": [
    {
      "buffer": 0,
      "byteLength": 626016,
      "byteOffset": 0,
      "name": "floatBufferViews",
      "target": 34963
    },
    {
      "buffer": 0,
      "byteLength": 222464,
      "byteOffset": 626016,
      "byteStride": 8,
      "name": "floatBufferViews",
      "target": 34962
    },
    {
      "buffer": 0,
      "byteLength": 667392,
      "byteOffset": 848480,
      "byteStride": 12,
      "name": "floatBufferViews",
      "target": 34962
    },
    {
      "buffer": 0,
      "byteLength": 444928,
      "byteOffset": 1515872,
      "byteStride": 16,
      "name": "floatBufferViews",
      "target": 34962
    }
  ],
  "buffers": [
    {
      "byteLength": 1960800,
      "uri": "scene.bin"
    }
  ],
  "images": [
    {
      "uri": "textures/Cerchio1_baseColor.jpeg"
    },
    {
      "uri": "textures/Cerchio1_normal.png"
    },
    {
      "uri": "textures/Cap1_normal.png"
    },
    {
      "uri": "textures/Cap1_baseColor.jpeg"
    },
    {
      "uri": "textures/10___Default_metallicRoughness.png"
    },
    {
      "uri": "textures/10___Default_baseColor.jpeg"
    }
  ],
  "materials": [
    {
      "doubleSided": true,
      "emissiveFactor": [
        0,
        0,
        0
      ],
      "name": "10___Default",
      "occlusionTexture": {
        "index": 4,
        "strength": 1,
        "texCoord": 0
      },
      "pbrMetallicRoughness": {
        "baseColorFactor": [
          1,
          1,
          1,
          1
        ],
        "baseColorTexture": {
          "index": 5,
          "texCoord": 0
        },
        "metallicFactor": 0,
        "roughnessFactor": 0.59999999999999998
      }
    },
    {
      "doubleSided": true,
      "emissiveFactor": [
        0,
        0,
        0
      ],
      "name": "Cap1",
      "normalTexture": {
        "index": 2,
        "scale": 1,
        "texCoord": 0
      },
      "pbrMetallicRoughness": {
        "baseColorFactor": [
          1,
          1,
          1,
          1
        ],
        "baseColorTexture": {
          "index": 3,
          "texCoord": 0
        },
        "metallicFactor": 1,
        "roughnessFactor": 0.59999999999999998
      }
    },
    {
      "doubleSided": true,
      "name": "Cerchio1",
      "normalTexture": {
        "index": 1,
        "scale": 1,
        "texCoord": 0
      },
      "pbrMetallicRoughness": {
        "baseColorFactor": [
          1,
          1,
          1,
          1
        ],
        "baseColorTexture": {
          "index": 0,
          "texCoord": 0
        },
        "metallicFactor": 1,
        "roughnessFactor": 0.59999999999999998
      }
    }
  ],
  "meshes": [
    {
      "name": "Face1_10___Default_0",
      "primitives": [
        {
          "attributes": {
            "NORMAL": 1,
            "POSITION": 0,
            "TANGENT": 2,
            "TEXCOORD_0": 3
          },
          "indices": 4,
          "material": 0,
          "mode": 4
        }
      ]
    },
    {
      "name": "LR_Cup1_Cap1_0",
      "primitives": [
        {
          "attributes": {
            "NORMAL": 6,
            "POSITION": 5,
            "TANGENT": 7,
            "TEXCOORD_0": 8
          },
          "indices": 9,
          "material": 1,
          "mode": 4
        }
      ]
    },
    {
      "name": "LR_Rosa1_Cerchio1_0",
      "primitives": [
        {
          "attributes": {
            "NORMAL": 11,
            "POSITION": 10,
            "TANGENT": 12,
            "TEXCOORD_0": 13
          },
          "indices": 14,
          "material": 2,
          "mode": 4
        }
      ]
    }
  ],
  "nodes": [
    {
      "children": [
        1
      ],
      "name": "RootNode (gltf orientation matrix)",
      "rotation": [
        -0.70710678118654746,
        -0,
        -0,
        0.70710678118654757
      ]
    },
    {
      "children": [
        2
      ],
      "name": "RootNode (model correction matrix)"
    },
    {
      "children": [
        3
      ],
      "matrix": [
        1,
        0,
        0,
        0,
        0,
        0,
        1,
        0,
        0,
        -1,
        0,
        0,
        0,
        0,
        0,
        1
      ],
      "name": "Tiger Mandir.fbx"
    },
    {
      "children": [
        4,
        6,
        8
      ],
      "name": "RootNode"
    },
    {
      "children": [
        5
      ],
      "matrix": [
        1,
        0,
        0,
        0,
        0,
        2.2204460492503131e-16,
        -1,
        0,
        0,
        1,
        2.2204460492503131e-16,
        0,
        -0.033748626708984375,
        18.911510467529297,
        2.2449688911437988,
        1
      ],
      "name": "Face1"
    },
    {
      "mesh": 0,
      "name": "Face1_10___Default_0"
    },
    {
      "children": [
        7
      ],
      "matrix": [
        1,
        0,
        0,
        0,
        0,
        2.2204460492503131e-16,
        -1,
        0,
        0,
        1,
        2.2204460492503131e-16,
        0,
        -0.033748626708984375,
        18.911510467529297,
        2.4519314765930176,
        1
      ],
      "name": "LR_Cup1"
    },
    {
      "mesh": 1,
      "name": "LR_Cup1_Cap1_0"
    },
    {
      "children": [
        9
      ],
      "matrix": [
        1,
        0,
        0,
        0,
        0,
        2.2204460492503131e-16,
        -1,
        0,
        0,
        1,
        2.2204460492503131e-16,
        0,
        -3.5017728805541992e-07,
        8.4687347412109375,
        -7.5300559997558594,
        1
      ],
      "name": "LR_Rosa1"
    },
    {
      "mesh": 2,
      "name": "LR_Rosa1_Cerchio1_0"
    }
  ],
  "samplers": [
    {
      "magFilter": 9729,
      "minFilter": 9987,
      "wrapS": 10497,
      "wrapT": 10497
    }
  ],
  "scene": 0,
  "scenes": [
    {
      "name": "OSG_Scene",
      "nodes": [
        0
      ]
    }
  ],
  "textures": [
    {
      "sampler": 0,
      "source": 0
    },
    {
      "sampler": 0,
      "source": 1
    },
    {
      "sampler": 0,
      "source": 2
    },
    {
      "sampler": 0,
      "source": 3
    },
    {
      "sampler": 0,
      "source": 4
    },
    {
      "sampler": 0,
      "source": 5
    }
  ]
}

