{"accessors" : [{"bufferView" : 0, "byteOffset" : 0, "componentType" : 5125, "count" : 86238, "type" : "SCALAR", "max" : [86237], "min" : [0]}, {"bufferView" : 1, "byteOffset" : 0, "componentType" : 5126, "count" : 86238, "type" : "VEC3", "max" : [30.25, 30.25, 7], "min" : [0, 0, 0]}, {"bufferView" : 1, "byteOffset" : 12, "componentType" : 5126, "count" : 86238, "type" : "VEC3", "max" : [0, 0, 0], "min" : [0, 0, 0]}], "asset" : {"generator" : "Aspose.3D 20.9.1", "version" : "2.0"}, "buffers" : [{"uri" : "buffer.bin", "byteLength" : 2414672}], "bufferViews" : [{"buffer" : 0, "byteOffset" : 0, "byteLength" : 344952, "target" : 34963}, {"buffer" : 0, "byteOffset" : 344956, "byteLength" : 2069712, "byteStride" : 24, "target" : 34962}], "meshes" : [{"primitives" : [{"attributes" : {"POSITION" : 1, "NORMAL" : 2}, "indices" : 0, "mode" : 4}]}], "nodes" : [{"mesh" : 0, "name" : ""}], "scene" : 0, "scenes" : [{"nodes" : [0]}]}