{
  "accessors": [
    {
      "bufferView": 2,
      "componentType": 5126,
      "count": 65534,
      "max": [
        0.77786022424697876,
        2.9686894416809082,
        0.62570351362228394
      ],
      "min": [
        -1.1821639537811279,
        -0.0025410652160644531,
        -0.51894843578338623
      ],
      "type": "VEC3"
    },
    {
      "bufferView": 2,
      "byteOffset": 786408,
      "componentType": 5126,
      "count": 65534,
      "max": [
        1,
        1,
        1
      ],
      "min": [
        -1,
        -1,
        -1
      ],
      "type": "VEC3"
    },
    {
      "bufferView": 3,
      "componentType": 5126,
      "count": 65534,
      "max": [
        1,
        0.99999809265136719,
        1,
        1
      ],
      "min": [
        -1,
        -0.99999737739562988,
        -1,
        -1
      ],
      "type": "VEC4"
    },
    {
      "bufferView": 1,
      "componentType": 5126,
      "count": 65534,
      "max": [
        0.98956072330474854,
        0.99734359979629517
      ],
      "min": [
        0.0081777572631835938,
        0.0024331808090209961
      ],
      "type": "VEC2"
    },
    {
      "bufferView": 0,
      "componentType": 5125,
      "count": 291240,
      "max": [
        65533
      ],
      "min": [
        0
      ],
      "type": "SCALAR"
    },
    {
      "bufferView": 2,
      "byteOffset": 1572816,
      "componentType": 5126,
      "count": 61619,
      "max": [
        0.77188819646835327,
        2.9686894416809082,
        0.60770374536514282
      ],
      "min": [
        -1.1641875505447388,
        -0.0025410652160644531,
        -0.49067756533622742
      ],
      "type": "VEC3"
    },
    {
      "bufferView": 2,
      "byteOffset": 2312244,
      "componentType": 5126,
      "count": 61619,
      "max": [
        0.99996829032897949,
        0.99984198808670044,
        0.99998044967651367
      ],
      "min": [
        -0.99996644258499146,
        -0.99999243021011353,
        -0.9999050498008728
      ],
      "type": "VEC3"
    },
    {
      "bufferView": 3,
      "byteOffset": 1048544,
      "componentType": 5126,
      "count": 61619,
      "max": [
        0.99999934434890747,
        0.99999630451202393,
        0.99977403879165649,
        1
      ],
      "min": [
        -0.99995392560958862,
        -0.99999850988388062,
        -0.99997442960739136,
        -1
      ],
      "type": "VEC4"
    },
    {
      "bufferView": 1,
      "byteOffset": 524272,
      "componentType": 5126,
      "count": 61619,
      "max": [
        0.99505084753036499,
        0.99553018808364868
      ],
      "min": [
        0.0062546730041503906,
        0.0014150440692901611
      ],
      "type": "VEC2"
    },
    {
      "bufferView": 0,
      "byteOffset": 1164960,
      "componentType": 5125,
      "count": 270642,
      "max": [
        61618
      ],
      "min": [
        0
      ],
      "type": "SCALAR"
    }
  ],
  "asset": {
    "extras": {
      "author": "bharathsrk13 (https://sketchfab.com/bharathsrk13)",
      "license": "CC-BY-4.0 (http://creativecommons.org/licenses/by/4.0/)",
      "source": "https://sketchfab.com/3d-models/santa-model-1e80f404af40420583dbf2dc85bd35e8",
      "title": "Santa Model"
    },
    "generator": "Sketchfab-6.99.1",
    "version": "2.0"
  },
  "bufferViews": [
    {
      "buffer": 0,
      "byteLength": 2247528,
      "byteOffset": 0,
      "name": "floatBufferViews",
      "target": 34963
    },
    {
      "buffer": 0,
      "byteLength": 1017224,
      "byteOffset": 2247528,
      "byteStride": 8,
      "name": "floatBufferViews",
      "target": 34962
    },
    {
      "buffer": 0,
      "byteLength": 3051672,
      "byteOffset": 3264752,
      "byteStride": 12,
      "name": "floatBufferViews",
      "target": 34962
    },
    {
      "buffer": 0,
      "byteLength": 2034448,
      "byteOffset": 6316424,
      "byteStride": 16,
      "name": "floatBufferViews",
      "target": 34962
    }
  ],
  "buffers": [
    {
      "byteLength": 8350872,
      "uri": "scene.bin"
    }
  ],
  "images": [
    {
      "uri": "textures/Mat_Santa_baseColor.jpeg"
    }
  ],
  "materials": [
    {
      "doubleSided": true,
      "emissiveFactor": [
        0,
        0,
        0
      ],
      "name": "Mat_Santa",
      "pbrMetallicRoughness": {
        "baseColorFactor": [
          1,
          1,
          1,
          1
        ],
        "baseColorTexture": {
          "index": 0,
          "texCoord": 0
        },
        "metallicFactor": 0,
        "roughnessFactor": 1
      }
    }
  ],
  "meshes": [
    {
      "name": "Mod_Santa_Mat_Santa_0",
      "primitives": [
        {
          "attributes": {
            "NORMAL": 1,
            "POSITION": 0,
            "TANGENT": 2,
            "TEXCOORD_0": 3
          },
          "indices": 4,
          "material": 0,
          "mode": 4
        }
      ]
    },
    {
      "name": "Mod_Santa_Mat_Santa_0",
      "primitives": [
        {
          "attributes": {
            "NORMAL": 6,
            "POSITION": 5,
            "TANGENT": 7,
            "TEXCOORD_0": 8
          },
          "indices": 9,
          "material": 0,
          "mode": 4
        }
      ]
    }
  ],
  "nodes": [
    {
      "children": [
        1
      ],
      "name": "RootNode (gltf orientation matrix)",
      "rotation": [
        -0.70710678118654746,
        -0,
        -0,
        0.70710678118654757
      ]
    },
    {
      "children": [
        2
      ],
      "name": "RootNode (model correction matrix)"
    },
    {
      "children": [
        3
      ],
      "matrix": [
        1,
        0,
        0,
        0,
        0,
        0,
        1,
        0,
        0,
        -1,
        0,
        0,
        0,
        0,
        0,
        1
      ],
      "name": "Mod_Santa.fbx"
    },
    {
      "children": [
        4
      ],
      "name": "RootNode"
    },
    {
      "children": [
        5,
        6
      ],
      "name": "Mod_Santa"
    },
    {
      "mesh": 0,
      "name": "Mod_Santa_Mat_Santa_0"
    },
    {
      "mesh": 1,
      "name": "Mod_Santa_Mat_Santa_0"
    }
  ],
  "samplers": [
    {
      "magFilter": 9729,
      "minFilter": 9987,
      "wrapS": 10497,
      "wrapT": 10497
    }
  ],
  "scene": 0,
  "scenes": [
    {
      "name": "OSG_Scene",
      "nodes": [
        0
      ]
    }
  ],
  "textures": [
    {
      "sampler": 0,
      "source": 0
    }
  ]
}

